<svg width="27" height="36" viewBox="0 0 27 36" fill="none" xmlns="http://www.w3.org/2000/svg">
<g clip-path="url(#clip0_160_475)">
<path d="M11.8336 35.1C8.22656 30.5859 0 19.6453 0 13.5C0 6.04688 6.04688 0 13.5 0C20.9531 0 27 6.04688 27 13.5C27 19.6453 18.7734 30.5859 15.1664 35.1C14.3016 36.1758 12.6984 36.1758 11.8336 35.1ZM13.5 18C15.982 18 18 15.982 18 13.5C18 11.018 15.982 9 13.5 9C11.018 9 9 11.018 9 13.5C9 15.982 11.018 18 13.5 18Z" fill="#006EE6"/>
</g>
<defs>
<clipPath id="clip0_160_475">
<rect width="27" height="36" fill="white" transform="matrix(-1 0 0 1 27 0)"/>
</clipPath>
</defs>
</svg>
